<svg version="1.1" xmlns="http://www.w3.org/2000/svg" xmlns:xlink="http://www.w3.org/1999/xlink">

<symbol id="log-in-user" viewBox="0 0 13 14">
  <g>
 <path d="M6.5 2.33331C7.69709 2.33331 8.66667 3.37748 8.66667 4.66665C8.66667 5.95581 7.69709 6.99998 6.5 6.99998C5.30292 6.99998 4.33334 5.95581 4.33334 4.66665C4.33334 3.37748 5.30292 2.33331 6.5 2.33331ZM6.5 11.6666C6.5 11.6666 10.8333 11.6666 10.8333 10.5C10.8333 9.09998 8.72084 7.58331 6.5 7.58331C4.27917 7.58331 2.16667 9.09998 2.16667 10.5C2.16667 11.6666 6.5 11.6666 6.5 11.6666Z"
  fill="black"/>
 </g>
</symbol>

<symbol id="chart" viewBox="0 0 14 14">
 <path d="M2.91669 5.36669H4.66669V11.0834H2.91669V5.36669ZM6.18335 2.91669H7.81669V11.0834H6.18335V2.91669ZM9.45002 7.58335H11.0834V11.0834H9.45002V7.58335Z"
  fill="black"/>
  </symbol>
 </svg>
