<svg width="16" height="16" viewBox="0 0 16 16" fill="none" xmlns="http://www.w3.org/2000/svg">
<path d="M6.66668 12C7.84999 11.9998 8.99921 11.6036 9.93134 10.8747L12.862 13.8053L13.8047 12.8627L10.874 9.93201C11.6033 8.99979 11.9997 7.8503 12 6.66668C12 3.72601 9.60734 1.33334 6.66668 1.33334C3.72601 1.33334 1.33334 3.72601 1.33334 6.66668C1.33334 9.60734 3.72601 12 6.66668 12ZM6.66668 2.66668C8.87268 2.66668 10.6667 4.46068 10.6667 6.66668C10.6667 8.87268 8.87268 10.6667 6.66668 10.6667C4.46068 10.6667 2.66668 8.87268 2.66668 6.66668C2.66668 4.46068 4.46068 2.66668 6.66668 2.66668Z" fill="black"/>
</svg>
